<svg width="313" height="279" viewBox="0 0 313 279" fill="none" xmlns="http://www.w3.org/2000/svg">
<rect x="14" y="12" width="281.722" height="248" fill="#1C1C1C"/>
<path d="M96.4 197.2C96.4 202.533 96.6 206.8 97 210C97.4 213.2 98.2 215.667 99.4 217.4C100.6 219.133 102.333 220.333 104.6 221C106.867 221.533 109.933 221.867 113.8 222V230H50.8V222C54.5333 221.867 57.5333 221.467 59.8 220.8C62.2 220 64 218.8 65.2 217.2C66.5333 215.467 67.4 213.133 67.8 210.2C68.3333 207.133 68.6 203.267 68.6 198.6V174C68.6 166.267 68.4667 159.933 68.2 155C67.9333 149.933 67.6 146.467 67.2 144.6C66.5333 141.267 65 139.067 62.6 138C60.3333 136.933 56.1333 136.4 50 136.4V129.6L96.4 122V197.2ZM67 79.6C67 75.2 68.4667 71.5333 71.4 68.6C74.4667 65.5333 78.1333 64 82.4 64C86.8 64 90.4667 65.5333 93.4 68.6C96.4667 71.5333 98 75.2 98 79.6C98 83.8667 96.4667 87.5333 93.4 90.6C90.4667 93.5333 86.8 95 82.4 95C78.1333 95 74.4667 93.5333 71.4 90.6C68.4667 87.5333 67 83.8667 67 79.6ZM168.666 197.4C168.666 202.867 168.799 207.2 169.066 210.4C169.466 213.467 170.199 215.867 171.266 217.6C172.466 219.2 174.199 220.267 176.466 220.8C178.866 221.333 182.066 221.733 186.066 222V230H123.066V222C126.932 221.733 129.999 221.333 132.266 220.8C134.666 220.267 136.466 219.2 137.666 217.6C138.999 216 139.866 213.733 140.266 210.8C140.666 207.867 140.866 203.867 140.866 198.8V173.8C140.866 165.933 140.732 159.6 140.466 154.8C140.199 149.867 139.866 146.533 139.466 144.8C139.066 143.067 138.532 141.667 137.866 140.6C137.199 139.4 136.199 138.533 134.866 138C133.532 137.333 131.866 136.933 129.866 136.8C127.866 136.533 125.332 136.4 122.266 136.4V129.6L160.866 122L163.466 139.6H164.266C168.666 134 173.866 129.667 179.866 126.6C185.866 123.533 192.466 122 199.666 122C208.199 122 215.066 123.2 220.266 125.6C225.599 127.867 230.332 131.733 234.466 137.2C236.732 140.267 238.732 144.267 240.466 149.2C242.199 154 243.066 160.667 243.066 169.2V197.4C243.066 202.867 243.199 207.2 243.466 210.4C243.866 213.467 244.599 215.867 245.666 217.6C246.866 219.2 248.599 220.267 250.866 220.8C253.132 221.333 256.199 221.733 260.066 222V230H197.466V222C201.466 221.867 204.599 221.533 206.866 221C209.266 220.333 211.066 219.2 212.266 217.6C213.466 216 214.266 213.733 214.666 210.8C215.066 207.733 215.266 203.733 215.266 198.8V171.6C215.266 164.8 214.866 159.067 214.066 154.4C213.266 149.733 211.932 146 210.066 143.2C208.332 140.267 205.999 138.2 203.066 137C200.132 135.667 196.466 135 192.066 135C187.799 135 184.132 136.2 181.066 138.6C177.999 141 175.332 144.333 173.066 148.6C171.866 151 170.799 154.133 169.866 158C169.066 161.733 168.666 165.667 168.666 169.8V197.4Z" fill="white"/>
</svg>
