<svg width="1325" height="296" viewBox="0 0 1325 296" fill="none" xmlns="http://www.w3.org/2000/svg">
<path d="M326 236H319.8V199.6H328.2C330.467 209.2 333.733 216.2 338 220.6C342.267 225 347.8 227.2 354.6 227.2C359.533 227.2 363.333 226.2 366 224.2C368.8 222.067 370.2 219.2 370.2 215.6C370.2 211.867 368.533 208.267 365.2 204.8C361.867 201.2 356.467 197.4 349 193.4C338.867 187.933 331.6 182.533 327.2 177.2C322.8 171.733 320.6 165.6 320.6 158.8C320.6 154.4 321.4 150.333 323 146.6C324.733 142.733 327 139.4 329.8 136.6C332.733 133.8 336.2 131.667 340.2 130.2C344.2 128.6 348.533 127.8 353.2 127.8C357.333 127.8 361.4 128.4 365.4 129.6C369.533 130.8 373.133 132.467 376.2 134.6L379.8 129.8H385V160H377.2C374.133 152.4 370.933 146.933 367.6 143.6C364.4 140.267 360.467 138.6 355.8 138.6C352.067 138.6 349.067 139.6 346.8 141.6C344.667 143.6 343.6 146.267 343.6 149.6C343.6 153.333 345.2 156.867 348.4 160.2C351.733 163.533 357.2 167.2 364.8 171.2C370.133 174.133 374.733 177 378.6 179.8C382.467 182.6 385.6 185.467 388 188.4C390.4 191.2 392.133 194.2 393.2 197.4C394.4 200.467 395 203.8 395 207.4C395 212.067 394.133 216.267 392.4 220C390.667 223.733 388.2 226.933 385 229.6C381.8 232.267 377.933 234.333 373.4 235.8C369 237.267 364.067 238 358.6 238C352.867 238 347.533 237.267 342.6 235.8C337.667 234.2 333.6 231.933 330.4 229L326 236ZM507.764 219.4C502.697 225 496.364 229.333 488.764 232.4C481.297 235.467 473.164 237 464.364 237C456.231 237 448.831 235.733 442.164 233.2C435.497 230.533 429.764 226.867 424.964 222.2C420.164 217.533 416.431 211.933 413.764 205.4C411.231 198.733 409.964 191.4 409.964 183.4C409.964 175.133 411.364 167.6 414.164 160.8C416.964 154 420.897 148.2 425.964 143.4C431.031 138.467 437.097 134.667 444.164 132C451.231 129.333 459.031 128 467.564 128C473.564 128 479.097 128.6 484.164 129.8C489.364 131 493.764 132.667 497.364 134.8C501.097 136.933 504.031 139.467 506.164 142.4C508.297 145.2 509.364 148.267 509.364 151.6C509.364 155.467 508.231 158.533 505.964 160.8C503.831 163.067 500.897 164.2 497.164 164.2C494.097 164.2 491.364 163.4 488.964 161.8C486.697 160.2 484.431 157.6 482.164 154C480.164 150.8 478.431 148.267 476.964 146.4C475.631 144.533 474.364 143.133 473.164 142.2C471.964 141.133 470.764 140.467 469.564 140.2C468.364 139.8 466.897 139.6 465.164 139.6C457.431 139.6 451.431 143.2 447.164 150.4C442.897 157.6 440.764 167.667 440.764 180.6C440.764 194.467 443.297 205.133 448.364 212.6C453.564 220.067 460.964 223.8 470.564 223.8C476.031 223.8 481.497 222.8 486.964 220.8C492.431 218.667 497.631 215.667 502.564 211.8L507.764 219.4ZM566.655 205C566.655 210.2 566.855 214.333 567.255 217.4C567.788 220.333 568.788 222.6 570.255 224.2C571.721 225.8 573.855 226.867 576.655 227.4C579.455 227.8 583.188 228 587.855 228V236H521.055V228C525.055 227.733 528.255 227.333 530.655 226.8C533.055 226.267 534.855 225.2 536.055 223.6C537.255 222 537.988 219.733 538.255 216.8C538.655 213.733 538.855 209.667 538.855 204.6V180.2C538.855 171.933 538.655 165.333 538.255 160.4C537.855 155.467 536.988 151.667 535.655 149C534.321 146.333 532.388 144.6 529.855 143.8C527.455 142.867 524.255 142.4 520.255 142.4V135.4L560.255 128L563.455 151H564.255C567.855 143.933 572.588 138.333 578.455 134.2C584.321 130.067 590.521 128 597.055 128C602.121 128 606.255 129.267 609.455 131.8C612.655 134.333 614.255 137.533 614.255 141.4C614.255 145.667 612.988 149.267 610.455 152.2C608.055 155.133 604.721 156.6 600.455 156.6C598.455 156.6 596.655 156.2 595.055 155.4C593.455 154.6 591.988 153.733 590.655 152.8C589.455 151.733 588.188 150.8 586.855 150C585.655 149.067 584.388 148.6 583.055 148.6C580.521 148.6 578.121 150.267 575.855 153.6C573.588 156.933 571.721 161.4 570.255 167C569.188 171 568.321 175.533 567.655 180.6C566.988 185.533 566.655 190.467 566.655 195.4V205ZM666.064 203.2C666.064 208.533 666.264 212.8 666.664 216C667.064 219.2 667.864 221.667 669.064 223.4C670.264 225.133 671.997 226.333 674.264 227C676.531 227.533 679.597 227.867 683.464 228V236H620.464V228C624.197 227.867 627.197 227.467 629.464 226.8C631.864 226 633.664 224.8 634.864 223.2C636.197 221.467 637.064 219.133 637.464 216.2C637.997 213.133 638.264 209.267 638.264 204.6V180C638.264 172.267 638.131 165.933 637.864 161C637.597 155.933 637.264 152.467 636.864 150.6C636.197 147.267 634.664 145.067 632.264 144C629.997 142.933 625.797 142.4 619.664 142.4V135.6L666.064 128V203.2ZM636.664 85.6C636.664 81.2 638.131 77.5333 641.064 74.6C644.131 71.5333 647.797 70 652.064 70C656.464 70 660.131 71.5333 663.064 74.6C666.131 77.5333 667.664 81.2 667.664 85.6C667.664 89.8667 666.131 93.5333 663.064 96.6C660.131 99.5333 656.464 101 652.064 101C647.797 101 644.131 99.5333 641.064 96.6C638.131 93.5333 636.664 89.8667 636.664 85.6ZM730.53 143H731.33C740.13 133 751.596 128 765.73 128C773.463 128 780.53 129.4 786.93 132.2C793.463 134.867 799.063 138.667 803.73 143.6C808.53 148.4 812.196 154.2 814.73 161C817.396 167.667 818.73 175 818.73 183C818.73 191 817.396 198.333 814.73 205C812.196 211.667 808.596 217.467 803.93 222.4C799.263 227.333 793.663 231.2 787.13 234C780.73 236.667 773.73 238 766.13 238C753.196 238 743.33 233.6 736.53 224.8H735.73V252.6C735.73 257.933 735.996 262.2 736.53 265.4C737.063 268.6 738.196 271.067 739.93 272.8C741.663 274.533 744.063 275.733 747.13 276.4C750.33 277.067 754.53 277.467 759.73 277.6V286H690.73V277.6C694.33 277.467 697.263 277.067 699.53 276.4C701.796 275.733 703.53 274.533 704.73 272.8C706.063 271.067 706.93 268.667 707.33 265.6C707.863 262.667 708.13 258.8 708.13 254V179.6C708.13 173.467 707.996 167.667 707.73 162.2C707.463 156.6 707.13 152.667 706.73 150.4C706.063 147.333 704.53 145.2 702.13 144C699.863 142.8 695.93 142.2 690.33 142.2V134.4L730.53 128.8V143ZM764.53 139.4C760.263 139.4 756.196 140.333 752.33 142.2C748.463 144.067 745.396 146.533 743.13 149.6C740.863 152.667 739.13 156.533 737.93 161.2C736.73 165.733 736.13 170.667 736.13 176V189.6C736.13 199.067 738.463 207.133 743.13 213.8C748.196 221.133 755.33 224.8 764.53 224.8C772.663 224.8 778.663 221.467 782.53 214.8C786.53 208 788.53 197.533 788.53 183.4C788.53 154.067 780.53 139.4 764.53 139.4ZM831.383 141V132C839.383 129.733 846.049 126.333 851.383 121.8C856.849 117.133 860.916 111.8 863.583 105.8H873.783V130H896.783V141H873.783V202.4C873.783 210.667 874.649 216.533 876.383 220C878.249 223.467 881.316 225.2 885.583 225.2C890.783 225.2 894.716 222.8 897.383 218L901.583 223.8C897.849 233.267 889.049 238 875.183 238C865.983 238 858.783 235.867 853.583 231.6C848.516 227.333 845.983 221.333 845.983 213.6V141H831.383ZM995.75 162.8C995.75 157.467 995.617 153.267 995.35 150.2C995.083 147 994.35 144.6 993.15 143C991.95 141.267 990.15 140.133 987.75 139.6C985.483 138.933 982.35 138.4 978.35 138V130H1023.55V190.6C1023.55 198.733 1023.62 205.133 1023.75 209.8C1024.02 214.333 1024.42 217.733 1024.95 220C1025.35 221.733 1025.82 223.133 1026.35 224.2C1026.88 225.133 1027.75 225.933 1028.95 226.6C1030.15 227.133 1031.75 227.533 1033.75 227.8C1035.88 227.933 1038.62 228 1041.95 228V235.8L1002.15 238.2L999.95 220.4H999.15C995.683 226 990.817 230.333 984.55 233.4C978.283 236.467 971.283 238 963.55 238C949.283 238 938.417 232.933 930.95 222.8C925.217 215.067 922.35 204.067 922.35 189.8V162.8C922.35 157.333 922.217 153.067 921.95 150C921.683 146.8 920.95 144.4 919.75 142.8C918.683 141.2 917.017 140.133 914.75 139.6C912.483 138.933 909.35 138.4 905.35 138V130H950.15V186.6C950.15 200.067 951.817 209.867 955.15 216C958.483 222 963.817 225 971.15 225C979.017 225 985.083 221.4 989.35 214.2C993.617 207.267 995.75 197.067 995.75 183.6V162.8ZM1096.15 203C1096.15 208.6 1096.28 213 1096.55 216.2C1096.81 219.4 1097.55 221.867 1098.75 223.6C1099.95 225.2 1101.68 226.267 1103.95 226.8C1106.21 227.333 1109.35 227.733 1113.35 228V236H1050.15V228C1054.15 227.733 1057.35 227.333 1059.75 226.8C1062.15 226.267 1063.95 225.2 1065.15 223.6C1066.35 222 1067.15 219.733 1067.55 216.8C1067.95 213.733 1068.15 209.667 1068.15 204.6V179.8C1068.15 172.2 1068.01 165.867 1067.75 160.8C1067.61 155.733 1067.28 152.267 1066.75 150.4C1066.35 148.667 1065.81 147.333 1065.15 146.4C1064.61 145.333 1063.68 144.533 1062.35 144C1061.15 143.333 1059.55 142.933 1057.55 142.8C1055.55 142.533 1052.95 142.4 1049.75 142.4V135.6L1088.35 128L1090.75 145.4H1091.95C1097.55 139.133 1103.15 134.667 1108.75 132C1114.48 129.333 1121.08 128 1128.55 128C1137.35 128 1144.61 129.533 1150.35 132.6C1156.08 135.667 1160.41 140.067 1163.35 145.8H1164.15C1168.95 140.2 1174.68 135.867 1181.35 132.8C1188.01 129.6 1195.15 128 1202.75 128C1210.75 128 1217.68 129 1223.55 131C1229.55 133 1234.21 135.867 1237.55 139.6C1240.21 142.667 1242.15 146.667 1243.35 151.6C1244.68 156.533 1245.35 163.4 1245.35 172.2V203C1245.35 208.467 1245.48 212.8 1245.75 216C1246.15 219.2 1246.95 221.667 1248.15 223.4C1249.35 225.133 1251.08 226.267 1253.35 226.8C1255.61 227.333 1258.75 227.733 1262.75 228V236H1199.55V228C1203.55 227.867 1206.68 227.533 1208.95 227C1211.35 226.333 1213.15 225.2 1214.35 223.6C1215.68 221.867 1216.48 219.533 1216.75 216.6C1217.15 213.667 1217.35 209.667 1217.35 204.6V178.4C1217.35 171.467 1216.95 165.6 1216.15 160.8C1215.35 156 1214.08 152.133 1212.35 149.2C1210.61 146.267 1208.28 144.2 1205.35 143C1202.55 141.667 1199.08 141 1194.95 141C1190.28 141 1186.41 142.133 1183.35 144.4C1180.41 146.667 1177.95 149.6 1175.95 153.2C1172.48 159.467 1170.75 167.267 1170.75 176.6V203C1170.75 208.467 1170.88 212.8 1171.15 216C1171.41 219.2 1172.15 221.667 1173.35 223.4C1174.55 225.133 1176.28 226.267 1178.55 226.8C1180.95 227.333 1184.21 227.733 1188.35 228V236H1124.95V228C1128.95 227.733 1132.08 227.333 1134.35 226.8C1136.75 226.267 1138.55 225.2 1139.75 223.6C1141.08 222 1141.88 219.733 1142.15 216.8C1142.55 213.733 1142.75 209.667 1142.75 204.6V178.4C1142.75 171.467 1142.35 165.6 1141.55 160.8C1140.75 156 1139.41 152.133 1137.55 149.2C1135.81 146.267 1133.48 144.2 1130.55 143C1127.61 141.667 1123.95 141 1119.55 141C1115.15 141 1111.48 142.067 1108.55 144.2C1105.75 146.333 1103.41 149.2 1101.55 152.8C1099.81 156 1098.48 159.667 1097.55 163.8C1096.61 167.933 1096.15 172.2 1096.15 176.6V203ZM1276.64 223.2C1276.64 218.933 1278.04 215.333 1280.84 212.4C1283.77 209.333 1287.37 207.8 1291.64 207.8C1296.04 207.8 1299.7 209.333 1302.64 212.4C1305.57 215.333 1307.04 218.933 1307.04 223.2C1307.04 227.333 1305.57 230.867 1302.64 233.8C1299.7 236.6 1296.04 238 1291.64 238C1287.37 238 1283.77 236.6 1280.84 233.8C1278.04 230.867 1276.64 227.333 1276.64 223.2Z" fill="#1C1C1C"/>
<rect x="12" y="19" width="281.722" height="248" fill="#1C1C1C"/>
<path d="M124.391 200.739C124.391 206.072 124.591 210.339 124.991 213.539C125.391 216.739 126.191 219.205 127.391 220.939C128.591 222.672 130.325 223.872 132.591 224.539C134.858 225.072 137.925 225.405 141.791 225.539V233.539H78.7912V225.539C82.5245 225.405 85.5245 225.005 87.7912 224.339C90.1912 223.539 91.9912 222.339 93.1912 220.739C94.5245 219.005 95.3912 216.672 95.7912 213.739C96.3245 210.672 96.5912 206.805 96.5912 202.139V177.539C96.5912 169.805 96.4579 163.472 96.1912 158.539C95.9245 153.472 95.5912 150.005 95.1912 148.139C94.5245 144.805 92.9912 142.605 90.5912 141.539C88.3245 140.472 84.1245 139.939 77.9912 139.939V133.139L124.391 125.539V200.739ZM94.9912 83.1386C94.9912 78.7386 96.4579 75.0719 99.3912 72.1386C102.458 69.0719 106.125 67.5386 110.391 67.5386C114.791 67.5386 118.458 69.0719 121.391 72.1386C124.458 75.0719 125.991 78.7386 125.991 83.1386C125.991 87.4052 124.458 91.0719 121.391 94.1386C118.458 97.0719 114.791 98.5386 110.391 98.5386C106.125 98.5386 102.458 97.0719 99.3912 94.1386C96.4579 91.0719 94.9912 87.4052 94.9912 83.1386ZM196.657 200.939C196.657 206.405 196.79 210.739 197.057 213.939C197.457 217.005 198.19 219.405 199.257 221.139C200.457 222.739 202.19 223.805 204.457 224.339C206.857 224.872 210.057 225.272 214.057 225.539V233.539H151.057V225.539C154.924 225.272 157.99 224.872 160.257 224.339C162.657 223.805 164.457 222.739 165.657 221.139C166.99 219.539 167.857 217.272 168.257 214.339C168.657 211.405 168.857 207.405 168.857 202.339V177.339C168.857 169.472 168.724 163.139 168.457 158.339C168.19 153.405 167.857 150.072 167.457 148.339C167.057 146.605 166.524 145.205 165.857 144.139C165.19 142.939 164.19 142.072 162.857 141.539C161.524 140.872 159.857 140.472 157.857 140.339C155.857 140.072 153.324 139.939 150.257 139.939V133.139L188.857 125.539L191.457 143.139H192.257C196.657 137.539 201.857 133.205 207.857 130.139C213.857 127.072 220.457 125.539 227.657 125.539C236.19 125.539 243.057 126.739 248.257 129.139C253.59 131.405 258.324 135.272 262.457 140.739C264.724 143.805 266.724 147.805 268.457 152.739C270.19 157.539 271.057 164.205 271.057 172.739V200.939C271.057 206.405 271.19 210.739 271.457 213.939C271.857 217.005 272.59 219.405 273.657 221.139C274.857 222.739 276.59 223.805 278.857 224.339C281.124 224.872 284.19 225.272 288.057 225.539V233.539H225.457V225.539C229.457 225.405 232.59 225.072 234.857 224.539C237.257 223.872 239.057 222.739 240.257 221.139C241.457 219.539 242.257 217.272 242.657 214.339C243.057 211.272 243.257 207.272 243.257 202.339V175.139C243.257 168.339 242.857 162.605 242.057 157.939C241.257 153.272 239.924 149.539 238.057 146.739C236.324 143.805 233.99 141.739 231.057 140.539C228.124 139.205 224.457 138.539 220.057 138.539C215.79 138.539 212.124 139.739 209.057 142.139C205.99 144.539 203.324 147.872 201.057 152.139C199.857 154.539 198.79 157.672 197.857 161.539C197.057 165.272 196.657 169.205 196.657 173.339V200.939Z" fill="white"/>
</svg>
